# xmcd
#
# Track frame offsets: 
#        150
#        12059
#        27222
#        39080
#        49307
#        62495
#        73701
#        86296
#        99519
#        115820
#        131558
#        141733
#
# Disc length: 2045 seconds
#
# Revision: 1
# Processed by: cddbd v1.5.1PL0 Copyright (c) Steve Scherf et al.
# Submitted via: ExactAudioCopy v0.95b3
#
DISCID=9b07fb0c
DTITLE=Various Artist - Country Classics [MasterTone] [disc 3]
DYEAR=1996
DGENRE=Country
TTITLE0=Dolly Parton - Two Little Orphans
TTITLE1=Kenny Rogers - Shine on Ruby Mountain
TTITLE2=Kitty Wells - I Gave My Wedding Dress Away
TTITLE3=Wild Bill Emerson - Texas Bull
TTITLE4=Woody Guthrie - Lonesome Day
TTITLE5=Waylon Jennings - Sally Was a Good Old Girl
TTITLE6=Willie Nelson - She's Not for You
TTITLE7=Box Car Willie - San Antonio Rose
TTITLE8=Jeannie Pruett - Waitin' for the Sun to Shine
TTITLE9=Ricky Skaggs - River Underground
TTITLE10=Billie Jo Spears - It Makes No Difference Now
TTITLE11=Jimmy Wakely - Lonesome Guitar Man
EXTD=YEAR: 1996
EXTT0=
EXTT1=
EXTT2=
EXTT3=
EXTT4=
EXTT5=
EXTT6=
EXTT7=
EXTT8=
EXTT9=
EXTT10=
EXTT11=
PLAYORDER=
